<svg xmlns="http://www.w3.org/2000/svg" viewBox="0 0 30 28.7" enable-background="new 0 0 30 28.7"><path d="M27.6 13.4c-3 4-3.4 3.7-.9 6 2.4 2.2 2.9 3.3 3 3.5 0 0 1 1.8-1.1 1.8l-4 .1c-.9.2-2-.6-2-.6-1.5-1-2.9-3.7-4-3.4 0 0-1.1.4-1.1 2.8 0 .5-.2.8-.2.8s-.3.3-.8.3h-1.8c-4 .3-7.4-3.4-7.4-3.4s-3.9-4.1-7.2-11.9c-.2-.5 0-.8 0-.8s.2-.3.9-.3h4.3c.4 0 .7.3.7.3s.3.2.4.5c.6 1.7 1.6 3.3 1.6 3.3 1.6 3.2 2.6 3.8 3.2 3.4 0 0 .8-.5.6-4.4-.1-1.4-.5-2-.5-2-.4-.5-1-.6-1.3-.7-.2 0 .2-.6.7-.8.8-.4 2.1-.4 3.7-.4 1.3 0 1.6.1 2.1.2 1.5.4 1 1.7 1 5 0 1.1-.2 2.5.6 3 .3.2 1.1 0 3.1-3.4 0 0 .9-1.6 1.7-3.5.1-.3.4-.5.4-.5s.3-.1.6-.1h4.5c1.3-.1 1.6.6 1.6.6.2.6-.5 2.1-2.4 4.6z" fill="#fff"/></svg>